<mxfile host="app.diagrams.net" modified="2023-05-30T06:10:33.232Z" agent="Mozilla/5.0 (Windows NT 10.0; Win64; x64; rv:109.0) Gecko/20100101 Firefox/113.0" version="21.3.5" etag="r3FQ4j_SyI_VlpJ2-fXY" type="github">
  <diagram name="Page-1" id="_egoi1dAj_bujWGIsaC2">
    <mxGraphModel>
      <root>
        <mxCell id="0" />
        <mxCell id="1" parent="0" />
      </root>
    </mxGraphModel>
  </diagram>
</mxfile>
